<?xml version="1.0" encoding="UTF-8" standalone="no"?>
<svg width="252px" height="57px" viewBox="0 0 252 57" version="1.1" xmlns="http://www.w3.org/2000/svg" xmlns:xlink="http://www.w3.org/1999/xlink" xmlns:sketch="http://www.bohemiancoding.com/sketch/ns">
    <!-- Generator: Sketch 3.2.2 (9983) - http://www.bohemiancoding.com/sketch -->
    <title>Layer_1 4</title>
    <desc>Created with Sketch.</desc>
    <defs></defs>
    <g id="About-/-Jobs-/-Press" stroke="none" stroke-width="1" fill="none" fill-rule="evenodd" sketch:type="MSPage">
        <g id="Press---resources" sketch:type="MSArtboardGroup" transform="translate(-233.000000, -437.000000)" fill="#4075B7">
            <g id="Layer_1-4" sketch:type="MSLayerGroup" transform="translate(233.180891, 437.000000)">
                <path d="M21.7941523,8.07302404 C17.9138842,8.07302404 14.6453755,9.49255545 12.0036056,12.3313192 C9.35584396,15.1638017 8.03046519,18.7709549 8.03046519,23.1408145 C8.03046519,28.0155559 9.70037054,31.8769446 13.0311936,34.7097263 C15.6199364,36.9254634 18.5876584,38.0381176 21.9337604,38.0381176 C25.7238524,38.0381176 28.9492203,36.597051 31.6125606,33.7149177 C34.2759009,30.8450475 35.6105669,27.2965181 35.6105669,23.0881728 C35.6105669,18.8920906 34.266314,15.3402711 31.5814034,12.4303215 C28.8994887,9.52964392 25.6369718,8.07302404 21.7941523,8.07302404 M21.9026032,0 C27.8470349,0 32.9565139,2.24684364 37.2370319,6.74053091 C41.5115582,11.2372092 43.6470238,16.7194239 43.6470238,23.1904652 C43.6470238,29.5930124 41.536424,35.0163044 37.3209166,39.4543589 C33.1024134,43.8921144 27.9836472,46.1081507 21.9649176,46.1081507 C15.6570853,46.1081507 10.4235768,43.8272096 6.25180928,39.2713094 C2.07974219,34.7219894 0,29.3109606 0,23.0385221 C0,18.8454309 0.968569072,14.9810513 2.9087031,11.4603382 C4.85482889,7.94291529 7.5244605,5.14752117 10.9232901,3.0897091 C14.3224193,1.03189704 17.9851862,0 21.9026032,0" id="Shape" sketch:type="MSShapeGroup"></path>
                <path d="M78.5232997,18.9590891 L72.0231317,22.6284552 C70.8002121,21.3145063 69.5865798,20.4001558 68.3975137,19.8919839 C67.2054518,19.3775309 65.8024796,19.1235945 64.2038763,19.1235945 C61.2798942,19.1235945 58.9176402,20.043927 57.1171143,21.881601 C55.3076008,23.7225652 54.4040424,26.0839643 54.4040424,28.9538345 C54.4040424,31.7552106 55.2734478,34.0298706 57.0179506,35.8026398 C58.759158,37.575409 61.0438186,38.4616441 63.8716328,38.4616441 C67.3732212,38.4616441 70.0985763,37.2221712 72.0479975,34.7396363 L78.2159221,39.1280402 C74.8665245,43.6432627 70.1453121,45.8933964 64.0331109,45.8933964 C58.5449523,45.8933964 54.2458598,44.2043754 51.1385296,40.8137711 C48.0282036,37.4234659 46.4700447,33.4567939 46.4700447,28.9104649 C46.4700447,25.7555519 47.2244081,22.8641465 48.7298394,20.2018521 C50.2415622,17.5584011 52.3491661,15.4757637 55.0559466,13.954239 C57.7597313,12.4449774 60.7861726,11.68257 64.1292788,11.68257 C67.2273217,11.68257 70.0054043,12.3178596 72.473413,13.5791668 C74.9348307,14.837483 76.955554,16.6380686 78.5232997,18.9590891" id="Shape" sketch:type="MSShapeGroup"></path>
                <path d="M85.6166526,0.534193655 L93.4484907,0.534193655 L93.4484907,12.5308192 L98.1295584,12.5308192 L98.1295584,19.4448285 L93.4484907,19.4448285 L93.4484907,45.0463436 L85.6166526,45.0463436 L85.6166526,19.4448285 L81.646508,19.4448285 L81.646508,12.5308192 L85.6166526,12.5308192 L85.6166526,0.534193655 Z" id="Shape" sketch:type="MSShapeGroup"></path>
                <path d="M159.006506,19.1226972 C156.582237,19.1226972 154.567506,20.0122223 152.971899,21.7694383 C151.370299,23.5422075 150.566204,25.853956 150.566204,28.7052819 C150.566204,31.6152315 151.370299,33.9673586 152.971899,35.761663 C154.567506,37.5592576 156.582237,38.4610459 159.006506,38.4610459 C161.359473,38.4610459 163.339752,37.5437044 164.947642,35.7182934 C166.558828,33.8928825 167.359628,31.5625898 167.359628,28.7330982 C167.359628,25.9191599 166.574407,23.6133934 164.988087,21.819089 C163.408058,20.0185034 161.418192,19.1226972 159.006506,19.1226972 L159.006506,19.1226972 Z M150.876578,12.5311183 L150.876578,16.0670855 C152.289137,14.6074747 153.810147,13.5133647 155.449194,12.7820637 C157.084947,12.0507628 158.835741,11.6849628 160.704273,11.6849628 C164.761598,11.6849628 168.203868,13.2902356 171.044265,16.5010805 C173.878371,19.7116262 175.296921,23.8335315 175.296921,28.8509439 C175.296921,33.6915878 173.828639,37.7452981 170.89537,41.0084856 C167.968092,44.265691 164.494665,45.8957892 160.474789,45.8957892 C158.68355,45.8957892 157.019636,45.5670777 155.47406,44.8976906 C153.934176,44.2375756 152.403879,43.1467557 150.876578,41.6407842 L150.876578,56.9406768 L143.042043,56.9406768 L143.042043,12.5311183 L150.876578,12.5311183 Z" id="Shape" sketch:type="MSShapeGroup"></path>
                <path d="M194.836971,19.1226972 C192.446855,19.1226972 190.466576,20.0185034 188.883252,21.819089 C187.303223,23.6133934 186.511711,25.9191599 186.511711,28.7330982 C186.511711,31.5625898 187.318802,33.8928825 188.926692,35.7182934 C190.537878,37.5437044 192.515161,38.4610459 194.865132,38.4610459 C197.292397,38.4610459 199.303833,37.5592576 200.905732,35.761663 C202.50104,33.9673586 203.302139,31.6152315 203.302139,28.7052819 C203.302139,25.853956 202.50104,23.5422075 200.905732,21.7694383 C199.303833,20.0122223 197.286106,19.1226972 194.836971,19.1226972 L194.836971,19.1226972 Z M202.997757,12.5311183 L210.835587,12.5311183 L210.835587,45.0466427 L202.997757,45.0466427 L202.997757,41.6345031 C201.476747,43.1467557 199.943454,44.2315936 198.406866,44.8976906 C196.873273,45.5670777 195.209659,45.8957892 193.41842,45.8957892 C189.398544,45.8957892 185.912834,44.265691 182.985556,41.0084856 C180.0427,37.7452981 178.577713,33.6915878 178.577713,28.8509439 C178.577713,23.8335315 179.996264,19.7116262 182.839657,16.5010805 C185.68305,13.2902356 189.128615,11.6849628 193.188636,11.6849628 C195.054472,11.6849628 196.808262,12.0507628 198.450306,12.7820637 C200.086058,13.5133647 201.604072,14.6074747 202.997757,16.0670855 L202.997757,12.5311183 Z" id="Shape" sketch:type="MSShapeGroup"></path>
                <path d="M215.335404,12.5311183 L222.148941,12.5311183 L222.148941,16.6033729 C222.853573,14.9948099 223.797276,13.7705912 224.970764,12.943279 C226.140956,12.1063955 227.42589,11.6849628 228.825866,11.6849628 C229.807018,11.6849628 230.840598,11.9670146 231.920913,12.5218462 L229.543081,19.5225947 C228.642818,19.0452301 227.91332,18.8068469 227.339009,18.8068469 C226.15953,18.8068469 225.169391,19.5815175 224.356008,21.1341486 C223.545921,22.6990429 223.139081,25.7456815 223.139081,30.2920105 L223.163946,31.8754491 L223.163946,45.0466427 L215.335404,45.0466427 L215.335404,12.5311183 Z" id="Shape" sketch:type="MSShapeGroup"></path>
                <path d="M238.452538,0.534193655 L246.287372,0.534193655 L246.287372,12.5308192 L250.965144,12.5308192 L250.965144,19.4448285 L246.287372,19.4448285 L246.287372,45.0463436 L238.452538,45.0463436 L238.452538,19.4448285 L234.488685,19.4448285 L234.488685,12.5308192 L238.452538,12.5308192 L238.452538,0.534193655 Z" id="Shape" sketch:type="MSShapeGroup"></path>
                <path d="M126.055085,28.768093 C126.055085,32.1491261 123.140391,34.8918785 119.542634,34.8918785 C115.948174,34.8918785 113.03947,32.1491261 113.03947,28.768093 C113.03947,25.3870599 115.948174,22.6443075 119.542634,22.6443075 C123.140391,22.6443075 126.055085,25.3870599 126.055085,28.768093 L126.055085,28.768093 Z M140.775058,32.651316 L140.775058,24.878888 L133.514535,24.878888 C133.200866,23.7321364 132.756876,22.6505886 132.195148,21.6309547 L137.307623,16.5268031 L131.804185,11.0353163 L126.763013,16.0679828 C125.726137,15.4637996 124.61796,14.9897252 123.438481,14.6580227 L123.438481,7.57053505 L115.650083,7.57053505 L115.650083,14.6580227 C114.4736,14.9897252 113.365423,15.4637996 112.328847,16.0649918 L107.29067,11.0353163 L101.783937,16.5268031 L106.899707,21.6339457 C106.334684,22.6505886 105.890694,23.7321364 105.577324,24.878888 L98.3135056,24.878888 L98.3135056,32.651316 L105.577324,32.651316 C105.887698,33.8010587 106.334684,34.8855974 106.899707,35.9022403 L101.783937,41.0093829 L107.29067,46.5008697 L112.328847,41.4711942 C113.365423,42.0723864 114.4736,42.5464608 115.650083,42.8781634 L115.650083,49.96266 L123.438481,49.96266 L123.438481,42.8781634 C124.61796,42.5464608 125.729133,42.0723864 126.766009,41.4711942 L131.804185,46.5008697 L137.307623,41.0093829 L132.195148,35.9052313 C132.756876,34.8855974 133.203862,33.8010587 133.517531,32.651316 L140.775058,32.651316 Z" id="Shape" sketch:type="MSShapeGroup"></path>
            </g>
        </g>
    </g>
</svg>